<svg id="Group_1" data-name="Group 1" xmlns="http://www.w3.org/2000/svg" width="312" height="43.589" viewBox="0 0 312 43.589">
  <path id="Path_1" data-name="Path 1" d="M176.639,537.416a22.666,22.666,0,0,1,4.616.464,7.033,7.033,0,0,1,3.236,1.36q1.01.9,1.009,1.534a1.312,1.312,0,0,1-.743,1.1q-.319.522-2.281.059c-.318-.077-.823-.222-1.512-.434a15.377,15.377,0,0,0-1.671-.434,32.314,32.314,0,0,0-6.764-.984,31.39,31.39,0,0,0-3.793.172q.955,1.39,3.846,5.355t4.855,6.889a46.447,46.447,0,0,1,2.918,4.833,7.717,7.717,0,0,1,.955,3.357,2.866,2.866,0,0,1-.717,2.142,2.1,2.1,0,0,1-1.432.694,4.19,4.19,0,0,1-1.327-.2q-.609-.2-.61-.492c0-.194.16-.242.478-.146a3.007,3.007,0,0,0,.849.146q1.273,0,1.273-1.651a7.679,7.679,0,0,0-.425-2.749q-.265-.7-.452-1.158a7.944,7.944,0,0,0-.662-1.215c-.319-.5-.54-.85-.663-1.042s-.38-.569-.769-1.129-.9-1.312-1.54-2.257-3.4-4.6-8.276-10.97a7.929,7.929,0,0,0-1.751.9q-.687.493-.955.058t.265-1.128a6.139,6.139,0,0,1,1.432-1.159l-1.962-2.546a23.9,23.9,0,0,1-3.768-6.946,10.108,10.108,0,0,1-.636-3.5,5.99,5.99,0,0,1,1.327-3.56q2.016-2.834,9.019-2.836a53.035,53.035,0,0,1,14.27,2.142,46.193,46.193,0,0,1,12.2,5.151,8.4,8.4,0,0,1,3.211,3.156,7.687,7.687,0,0,1,.981,3.674,3.564,3.564,0,0,1-1.592,3.011.987.987,0,0,1-.636.173c-.282,0-.318-.1-.106-.29A2.383,2.383,0,0,0,199.5,535.1q0-1.853-4.351-3.995a71.957,71.957,0,0,0-15.491-5.21,42.075,42.075,0,0,0-9.761-1.215,7.506,7.506,0,0,0-4.086.983,4.181,4.181,0,0,0-2.068,3.7q0,3.359,3.872,9.262A28.9,28.9,0,0,1,176.639,537.416Z" transform="translate(-159.662 -519.935)" fill="#003d61"/>
  <path id="Path_2" data-name="Path 2" d="M208.663,547.533q2.811-1.539,2.811-3.131t-1.91-1.592a4.472,4.472,0,0,0-1.91.478,12.358,12.358,0,0,0-4.3,3.5q-2.547,3.076-2.547,5.73a3.44,3.44,0,0,0,.557,1.883,2.172,2.172,0,0,0,1.99.876q2.492,0,6.313-2.626a51.913,51.913,0,0,0,6.579-5.279q.637-.637.636-.053a.8.8,0,0,1-.318.637q-1.964,1.8-2.626,2.414t-2.626,2.175a21.614,21.614,0,0,1-3.184,2.2,14.484,14.484,0,0,1-6.393,1.963,6.514,6.514,0,0,1-4.138-1.194,3.988,3.988,0,0,1-1.511-3.317,9.735,9.735,0,0,1,4.031-7.772,13.245,13.245,0,0,1,8.435-3.262q2.971,0,3.979,1.274a2.4,2.4,0,0,1,.424,1.353,3.229,3.229,0,0,1-.477,1.565,7.859,7.859,0,0,1-3.582,2.891,11.592,11.592,0,0,1-4.96,1.247q-.9,0-.982-.159c-.053-.105-.009-.186.133-.239a1.7,1.7,0,0,1,.584-.079A11.2,11.2,0,0,0,208.663,547.533Z" transform="translate(-160.863 -516.995)" fill="#003d61"/>
  <path id="Path_3" data-name="Path 3" d="M239.636,543.949q0,1.963-3.342,6.472-2.017,2.705-2.016,3.342t.663.637a3.973,3.973,0,0,0,1.884-.8,46.964,46.964,0,0,0,6.048-4.987q.424-.423.583-.212a.645.645,0,0,1,.16.318,7.743,7.743,0,0,1-1.167,1.22q-1.167,1.114-2.573,2.334a26.552,26.552,0,0,1-3.529,2.52,7.2,7.2,0,0,1-3.5,1.3q-2.863,0-2.863-2.546a8.558,8.558,0,0,1,.318-2.123q.688-2.068,5.994-8.011a2.078,2.078,0,0,0,.69-1.167q0-.424-1.061-.425t-3.342,1.858a19.808,19.808,0,0,0-1.963,1.883,21.986,21.986,0,0,0-2.733,4.007,30.711,30.711,0,0,0-2.307,4.881,1.249,1.249,0,0,1-1.274.954,3.311,3.311,0,0,1-.531-.053q-1.006-.264-.795-.955,4.138-7.374,4.934-9.231a8.049,8.049,0,0,0,.8-2.652q0-.8-.636-.8-2.814,0-8.065,9.178a33.62,33.62,0,0,1-3.077,4.244,3.158,3.158,0,0,1-2.122,1.274h-.213a4.19,4.19,0,0,1-2.7-1.115q.318-.478,1.538-2.069a73.29,73.29,0,0,0,4.722-6.366,49.4,49.4,0,0,1-3.873,3.554q-.529.425-.61.053a.672.672,0,0,1,.239-.664q.319-.29,1.062-.955l.981-.875q.239-.211.9-.823a12.4,12.4,0,0,0,.982-.982,20.425,20.425,0,0,0,2.175-2.97,2.881,2.881,0,0,0,.239-1.247,1.053,1.053,0,0,0-.265-.8.432.432,0,0,1-.186-.452.375.375,0,0,1,.424-.424,1.334,1.334,0,0,1,.478.106q1.644.743,1.644,3.237a10.273,10.273,0,0,1-.584,3.236q1.062-1.645,2.282-3.236,2.175-2.812,4.351-2.812,1.484,0,1.485,1.7,0,1.59-2.228,5.676,2.228-2.865,3.448-4.191,2.811-2.917,5.411-2.918,2.758,0,3.13,2.388Z" transform="translate(-151.618 -516.966)" fill="#003d61"/>
  <path id="Path_4" data-name="Path 4" d="M268.054,543.949q0,1.963-3.342,6.472-2.018,2.705-2.016,3.342t.663.637a3.965,3.965,0,0,0,1.883-.8,46.9,46.9,0,0,0,6.048-4.987c.284-.282.478-.352.585-.212a.651.651,0,0,1,.158.318,7.718,7.718,0,0,1-1.168,1.22q-1.166,1.114-2.571,2.334a26.635,26.635,0,0,1-3.529,2.52,7.213,7.213,0,0,1-3.5,1.3q-2.863,0-2.865-2.546a8.564,8.564,0,0,1,.319-2.123q.688-2.068,5.995-8.011a2.079,2.079,0,0,0,.69-1.167q0-.424-1.062-.425T261,543.684a19.845,19.845,0,0,0-1.962,1.883,21.974,21.974,0,0,0-2.733,4.007,30.815,30.815,0,0,0-2.308,4.881,1.247,1.247,0,0,1-1.273.954,3.3,3.3,0,0,1-.531-.053q-1.008-.264-.8-.955,4.139-7.374,4.934-9.231a8.029,8.029,0,0,0,.8-2.652q0-.8-.638-.8-2.812,0-8.064,9.178a33.765,33.765,0,0,1-3.077,4.244,3.157,3.157,0,0,1-2.122,1.274h-.212a4.194,4.194,0,0,1-2.706-1.115q.319-.478,1.539-2.069a73.721,73.721,0,0,0,4.722-6.366,49.419,49.419,0,0,1-3.873,3.554q-.53.425-.61.053a.673.673,0,0,1,.239-.664q.319-.29,1.061-.955l.981-.875q.239-.211.9-.823a12.372,12.372,0,0,0,.981-.982,20.412,20.412,0,0,0,2.175-2.97,2.906,2.906,0,0,0,.239-1.247,1.054,1.054,0,0,0-.266-.8.434.434,0,0,1-.185-.452.375.375,0,0,1,.425-.424,1.335,1.335,0,0,1,.478.106q1.644.743,1.644,3.237a10.272,10.272,0,0,1-.584,3.236q1.062-1.645,2.282-3.236,2.174-2.812,4.35-2.812,1.485,0,1.486,1.7,0,1.59-2.229,5.676,2.229-2.865,3.448-4.191,2.811-2.917,5.412-2.918,2.759,0,3.13,2.388Z" transform="translate(-147.241 -516.966)" fill="#003d61"/>
  <path id="Path_5" data-name="Path 5" d="M284.261,547.533q2.813-1.539,2.812-3.131t-1.91-1.592a4.472,4.472,0,0,0-1.91.478,12.373,12.373,0,0,0-4.3,3.5q-2.546,3.076-2.546,5.73a3.438,3.438,0,0,0,.557,1.883,2.171,2.171,0,0,0,1.989.876q2.494,0,6.314-2.626a51.935,51.935,0,0,0,6.579-5.279q.637-.637.637-.053a.8.8,0,0,1-.318.637q-1.965,1.8-2.627,2.414t-2.626,2.175a21.574,21.574,0,0,1-3.183,2.2,14.489,14.489,0,0,1-6.393,1.963,6.519,6.519,0,0,1-4.139-1.194,3.988,3.988,0,0,1-1.512-3.317,9.738,9.738,0,0,1,4.032-7.772,13.249,13.249,0,0,1,8.436-3.262q2.972,0,3.979,1.274a2.4,2.4,0,0,1,.424,1.353,3.232,3.232,0,0,1-.478,1.565,7.859,7.859,0,0,1-3.581,2.891,11.6,11.6,0,0,1-4.961,1.247c-.6,0-.927-.053-.982-.159s-.009-.186.134-.239a1.7,1.7,0,0,1,.584-.079A11.2,11.2,0,0,0,284.261,547.533Z" transform="translate(-143.34 -516.995)" fill="#003d61"/>
  <path id="Path_6" data-name="Path 6" d="M338.2,538.632q3.872-5.9,3.872-9.262a4.181,4.181,0,0,0-2.068-3.7,7.5,7.5,0,0,0-4.085-.983,42.078,42.078,0,0,0-9.762,1.215,72,72,0,0,0-15.491,5.21q-4.352,2.143-4.35,3.995a2.383,2.383,0,0,0,1.167,1.851c.212.195.176.29-.106.29a.987.987,0,0,1-.636-.173,3.563,3.563,0,0,1-1.592-3.011,7.682,7.682,0,0,1,.981-3.674,8.388,8.388,0,0,1,3.21-3.156,46.211,46.211,0,0,1,12.2-5.151,53.044,53.044,0,0,1,14.272-2.142q7,0,9.018,2.836a5.989,5.989,0,0,1,1.327,3.56,10.109,10.109,0,0,1-.636,3.5,23.9,23.9,0,0,1-3.767,6.946l-1.962,2.546a6.144,6.144,0,0,1,1.432,1.159q.529.695.265,1.128t-.955-.058a7.944,7.944,0,0,0-1.75-.9q-7.323,9.552-8.277,10.97t-1.539,2.257q-.584.84-.77,1.129c-.124.192-.344.541-.663,1.042a7.916,7.916,0,0,0-.662,1.215q-.187.464-.451,1.158a7.655,7.655,0,0,0-.425,2.749q0,1.649,1.274,1.651a3,3,0,0,0,.848-.146c.319-.1.478-.049.478.146s-.2.355-.61.492a4.191,4.191,0,0,1-1.327.2,2.1,2.1,0,0,1-1.432-.694,2.867,2.867,0,0,1-.715-2.142,7.717,7.717,0,0,1,.954-3.357,46.392,46.392,0,0,1,2.917-4.833q1.963-2.923,4.855-6.889t3.847-5.355a31.414,31.414,0,0,0-3.794-.172,32.315,32.315,0,0,0-6.764.984,15.444,15.444,0,0,0-1.671.434c-.689.212-1.193.357-1.511.434q-1.964.463-2.282-.059a1.312,1.312,0,0,1-.743-1.1q0-.637,1.009-1.534a7.032,7.032,0,0,1,3.236-1.36,22.671,22.671,0,0,1,4.616-.464A28.9,28.9,0,0,1,338.2,538.632Z" transform="translate(-136.134 -519.935)" fill="#003d61"/>
  <path id="Path_7" data-name="Path 7" d="M354.154,547.211q2.813-1.538,2.812-3.13t-1.91-1.592a4.478,4.478,0,0,0-1.91.478,12.375,12.375,0,0,0-4.3,3.5q-2.546,3.077-2.546,5.73a3.441,3.441,0,0,0,.557,1.883,2.171,2.171,0,0,0,1.989.877q2.494,0,6.314-2.627a52,52,0,0,0,6.579-5.279q.637-.637.636-.053a.8.8,0,0,1-.319.637q-1.964,1.8-2.626,2.414t-2.626,2.175a21.529,21.529,0,0,1-3.182,2.2,14.485,14.485,0,0,1-6.393,1.962,6.522,6.522,0,0,1-4.139-1.193,3.991,3.991,0,0,1-1.511-3.317,9.735,9.735,0,0,1,4.032-7.772,13.244,13.244,0,0,1,8.435-3.263q2.973,0,3.98,1.274a2.4,2.4,0,0,1,.424,1.353,3.233,3.233,0,0,1-.478,1.565,7.858,7.858,0,0,1-3.581,2.891,11.6,11.6,0,0,1-4.961,1.248c-.6,0-.928-.054-.982-.16s-.009-.186.133-.239a1.7,1.7,0,0,1,.584-.08A11.187,11.187,0,0,0,354.154,547.211Zm8.966-14.324a1.133,1.133,0,0,1,.106.584q0,.425-1.194,1.432a13.529,13.529,0,0,1-4.059,2.016,17.71,17.71,0,0,1-5.225,1.087q-2.362.08-2.468-.292c0-.105.088-.194.266-.265l.583-.106a11.5,11.5,0,0,0,4.005-1.141,14.18,14.18,0,0,0,3.581-2.228q1.326-1.194,1.327-1.99a.986.986,0,0,0-.08-.4c-.052-.124-.026-.185.08-.185a7.668,7.668,0,0,1,1.22.371A5.219,5.219,0,0,1,363.12,532.886Z" transform="translate(-133.043 -516.673)" fill="#003d61"/>
  <path id="Path_8" data-name="Path 8" d="M372.916,547.533q2.813-1.539,2.813-3.131t-1.91-1.592a4.477,4.477,0,0,0-1.911.478,12.358,12.358,0,0,0-4.3,3.5q-2.547,3.076-2.547,5.73a3.436,3.436,0,0,0,.558,1.883,2.17,2.17,0,0,0,1.99.876q2.492,0,6.312-2.626a51.828,51.828,0,0,0,6.579-5.279q.637-.637.638-.053a.8.8,0,0,1-.319.637l-2.626,2.414q-.664.611-2.626,2.175a21.625,21.625,0,0,1-3.182,2.2,14.491,14.491,0,0,1-6.394,1.963,6.514,6.514,0,0,1-4.138-1.194,3.988,3.988,0,0,1-1.512-3.317,9.735,9.735,0,0,1,4.032-7.772,13.247,13.247,0,0,1,8.436-3.262q2.97,0,3.979,1.274a2.4,2.4,0,0,1,.424,1.353,3.233,3.233,0,0,1-.478,1.565,7.868,7.868,0,0,1-3.581,2.891A11.6,11.6,0,0,1,368.2,549.5q-.9,0-.981-.159c-.053-.105-.01-.186.133-.239a1.708,1.708,0,0,1,.584-.079A11.2,11.2,0,0,0,372.916,547.533Z" transform="translate(-130.422 -516.995)" fill="#003d61"/>
  <path id="Path_9" data-name="Path 9" d="M393.88,545.025a46.007,46.007,0,0,0-3.794,4.959,7.519,7.519,0,0,0-1.459,3.184q0,.928,1.088.929t4.457-2.175a43.083,43.083,0,0,0,6.233-4.88c.177-.177.336-.248.478-.213a.252.252,0,0,1,.212.266.8.8,0,0,1-.212.477q-6.845,6.26-10.452,7.852a7.238,7.238,0,0,1-2.281.636,5.256,5.256,0,0,1-3.475-.849,2.488,2.488,0,0,1-.929-1.857,5.073,5.073,0,0,1,.8-3.077q2.6-3.66,4.139-6.207.477-.743-.187-1.034a4.091,4.091,0,0,0-1.644-.292,4.288,4.288,0,0,1-1.035-.053,39.768,39.768,0,0,1-7.055,7.533c-.284.249-.442.249-.479,0a1.6,1.6,0,0,1,.584-1.008,33.608,33.608,0,0,0,6.1-6.738,1,1,0,0,1-.477-.875q0-.557.08-1.353a5.947,5.947,0,0,1,.822-2.122q1.274-2.227,2.653-2.228,1.166,0,1.167,1.272a6.343,6.343,0,0,1-1.645,3.82,6.439,6.439,0,0,1-1.485,1.38,19.623,19.623,0,0,1,5.729-.638,2.817,2.817,0,0,1,2.653,1.38,1.482,1.482,0,0,1,.106.636A2.5,2.5,0,0,1,393.88,545.025Z" transform="translate(-121.457 -516.821)" fill="#003d61"/>
  <path id="Path_10" data-name="Path 10" d="M409.115,542.241a18.183,18.183,0,0,0-3.634,5.65,14.928,14.928,0,0,0-1.459,4.8q0,1.38,1.088,1.379a8.426,8.426,0,0,0,3.607-1.592,43.982,43.982,0,0,0,5.757-4.509q.689-.637.689.16a.3.3,0,0,1-.106.211q-2.546,2.228-4.3,3.66a26.059,26.059,0,0,1-4.165,2.733,8.939,8.939,0,0,1-3.952,1.3,4.092,4.092,0,0,1-2.838-.849,2.49,2.49,0,0,1-.928-1.857,5.712,5.712,0,0,1,.689-3.024,29.407,29.407,0,0,1,2.335-3.077q-.585.478-1.831,1.592t-1.725,1.485q-.477.372-.477-.213,0-.371.849-1.06t3.687-3.5a22.013,22.013,0,0,1,3.873-3.343,3.97,3.97,0,0,1,1.7-.532,2,2,0,0,1,.982.187Q409.275,542.029,409.115,542.241Zm.69-2.813a1.439,1.439,0,0,1-.477-1.379,3.727,3.727,0,0,1,.954-1.91,2.833,2.833,0,0,1,2.281-1.008,1.447,1.447,0,0,1,.9.4,1.415,1.415,0,0,1,.372,1.327,3.137,3.137,0,0,1-.849,1.75,3.374,3.374,0,0,1-1.671,1.06A1.625,1.625,0,0,1,409.8,539.428Z" transform="translate(-122.103 -516.797)" fill="#003d61"/>
  <path id="Path_11" data-name="Path 11" d="M426.405,547.533q2.813-1.539,2.812-3.131t-1.91-1.592a4.473,4.473,0,0,0-1.91.478,12.369,12.369,0,0,0-4.3,3.5q-2.546,3.076-2.546,5.73a3.444,3.444,0,0,0,.557,1.883,2.172,2.172,0,0,0,1.989.876q2.494,0,6.314-2.626a52,52,0,0,0,6.578-5.279q.637-.637.636-.053a.8.8,0,0,1-.318.637l-2.626,2.414q-.663.611-2.627,2.175a21.552,21.552,0,0,1-3.182,2.2,14.488,14.488,0,0,1-6.393,1.963,6.514,6.514,0,0,1-4.138-1.194,3.987,3.987,0,0,1-1.512-3.317,9.737,9.737,0,0,1,4.031-7.772,13.25,13.25,0,0,1,8.436-3.262q2.972,0,3.979,1.274a2.4,2.4,0,0,1,.424,1.353,3.231,3.231,0,0,1-.478,1.565,7.853,7.853,0,0,1-3.58,2.891,11.6,11.6,0,0,1-4.96,1.247c-.6,0-.929-.053-.983-.159s-.008-.186.134-.239a1.705,1.705,0,0,1,.584-.079A11.2,11.2,0,0,0,426.405,547.533Z" transform="translate(-122.629 -516.995)" fill="#003d61"/>
</svg>
