<svg xmlns="http://www.w3.org/2000/svg" width="22.026" height="22.026" viewBox="0 0 22.026 22.026">
  <path id="Icon_awesome-shopping-bag" data-name="Icon awesome-shopping-bag" d="M16.049,6.383V5.107C16.049,2.291,13.431,0,10.213,0S4.377,2.291,4.377,5.107V6.383H0V17.235a3.442,3.442,0,0,0,3.648,3.192H16.779a3.442,3.442,0,0,0,3.648-3.192V6.383ZM7.3,5.107a2.757,2.757,0,0,1,2.918-2.553,2.757,2.757,0,0,1,2.918,2.553V6.383H7.3Zm7.3,4.787A1.033,1.033,0,0,1,13.5,8.937a1.1,1.1,0,0,1,2.189,0A1.033,1.033,0,0,1,14.59,9.894Zm-8.754,0a1.033,1.033,0,0,1-1.094-.957,1.033,1.033,0,0,1,1.094-.957,1.033,1.033,0,0,1,1.094.957A1.033,1.033,0,0,1,5.836,9.894Z" transform="translate(0.8 0.8)" fill="none" stroke="#000" stroke-width="1.6"/>
</svg>
